<svg width="32" height="31" viewBox="0 0 32 31" fill="none" xmlns="http://www.w3.org/2000/svg">
<path d="M14.5342 1.7257C14.535 2.23486 14.5342 2.74403 14.5342 3.25403C14.5333 3.96653 14.3133 4.24736 13.6292 4.4257C12.0325 4.84153 10.5508 5.50403 9.28083 6.5707C8.73083 7.03236 8.25 7.57653 7.77667 8.13486C8.42167 7.68653 9.10167 7.40653 9.88917 7.4557C10.6867 7.50486 11.3525 7.8282 11.87 8.4357C12.6833 9.3907 12.7633 10.7515 12.0775 11.7974C11.4042 12.8249 10.1058 13.2982 8.93333 12.939C8.21583 12.7199 7.6675 12.2815 7.295 11.6307C6.93 10.9907 6.85083 10.3024 7.0025 9.57986C6.96583 9.57153 6.92917 9.56403 6.89333 9.55653C6.715 10.1332 6.5 10.7024 6.36667 11.289C5.96833 13.0474 6.03083 14.7932 6.5725 16.519C6.805 17.2574 6.67583 17.5707 6.005 17.9607C5.55583 18.2215 5.1075 18.4832 4.65417 18.7365C4.04333 19.0782 3.47167 18.8699 3.22417 18.2132C2.23167 15.574 2.115 12.889 2.81333 10.1632C2.83917 10.0649 2.8625 9.9657 2.9 9.8132C2.70917 9.8132 2.54917 9.8107 2.38917 9.81403C2.02583 9.8207 1.66 9.80986 1.29917 9.84403C0.711667 9.89903 0.265 9.71653 0 9.1682V8.66986C0.938333 6.81986 1.8775 4.9707 2.81583 3.12153C2.85333 3.04736 2.8925 2.97403 2.93333 2.90153C3.30833 2.2382 4.07833 2.17403 4.55083 2.77736C4.96083 3.3007 5.35167 3.83903 5.75167 4.36986C5.81333 4.4507 5.87917 4.52736 5.95167 4.61736C6.85 3.66653 7.84083 2.8682 8.95833 2.2282C10.315 1.4507 11.7658 0.939864 13.3075 0.68903C14.0825 0.562364 14.5317 0.947364 14.5342 1.7257Z" fill="#FF782D"/>
<path d="M30.9408 9.84088C30.4217 9.84505 29.9017 9.82171 29.3825 9.81171C29.2817 9.80921 29.1808 9.81088 29.0475 9.81088C29.1458 10.26 29.2458 10.6709 29.3258 11.085C29.7875 13.4892 29.585 15.8409 28.745 18.1384C28.4708 18.8884 27.9075 19.0959 27.2175 18.7017C26.785 18.4542 26.355 18.2025 25.9225 17.9542C25.27 17.5784 25.1333 17.2525 25.3583 16.5367C25.9575 14.63 25.9733 12.7142 25.4483 10.7934C25.335 10.3792 25.1683 9.97921 24.9825 9.57838C25.0967 10.3717 24.9908 11.1117 24.5525 11.7809C24.1083 12.4575 23.4792 12.8717 22.6825 13.0175C21.4592 13.2417 20.2058 12.5884 19.6667 11.4542C19.1225 10.3092 19.4225 8.93505 20.3883 8.11171C21.2442 7.38255 22.7575 7.06171 24.1067 8.16838C24.1283 8.15005 24.1492 8.13171 24.1708 8.11421C23.8783 7.78505 23.6017 7.44005 23.2892 7.13171C21.8983 5.76255 20.21 4.92838 18.3417 4.43255C17.6125 4.23921 17.4042 3.98088 17.4033 3.22588V1.76005C17.405 0.939213 17.8508 0.554213 18.6583 0.692547C21.4042 1.16171 23.7683 2.37171 25.73 4.35588C25.81 4.43671 25.8833 4.52505 25.9833 4.63671C26.3508 4.14921 26.6992 3.68755 27.0475 3.22505C27.16 3.07588 27.2683 2.92338 27.385 2.77755C27.8633 2.17921 28.6508 2.22671 29 2.90338C29.9517 4.74838 30.89 6.60005 31.8167 8.45755C32.1608 9.14755 31.715 9.83421 30.9408 9.84088Z" fill="#FF782D"/>
<path d="M26.0667 22.825C24.2492 25.0075 21.9792 26.48 19.2225 27.1892C19.1625 27.2042 19.1017 27.22 19.0433 27.2392C19.025 27.245 19.0117 27.2642 18.9783 27.2917C19.17 27.8617 19.3642 28.44 19.5567 29.0175C19.8367 29.8559 19.4342 30.4109 18.5425 30.4117C16.8275 30.4134 15.1125 30.4134 13.3975 30.4117C12.4917 30.4109 12.1017 29.8575 12.3908 28.9917C12.5808 28.4234 12.7708 27.8542 12.9625 27.2792C12.425 27.105 11.8992 26.9525 11.385 26.765C9.175 25.9584 7.34833 24.6125 5.855 22.8034C5.40167 22.2534 5.50833 21.6425 6.12417 21.2817C6.59083 21.0092 7.05833 20.74 7.5275 20.4725C8.10417 20.1417 8.4875 20.1967 8.93667 20.6884C10.2 22.0692 11.7083 23.0625 13.5275 23.5425C14.0942 23.6917 14.68 23.7667 15.2625 23.8442C13.55 22.9509 12.8917 21.8434 13.24 20.395C13.5433 19.1317 14.6933 18.24 15.9992 18.2567C17.3 18.2725 18.4233 19.1725 18.7033 20.425C19.03 21.8842 18.3667 22.9884 16.615 23.835C17.5442 23.78 18.3892 23.5984 19.2092 23.2942C20.6808 22.7484 21.9183 21.8609 22.9767 20.7117C23.4592 20.1884 23.8233 20.1342 24.4333 20.4859C24.8833 20.745 25.3342 21.0017 25.7817 21.2642C26.435 21.6475 26.5467 22.2484 26.0667 22.825Z" fill="#FF782D"/>
</svg>
