<svg width="32" height="33" viewBox="0 0 32 33" fill="none" xmlns="http://www.w3.org/2000/svg">
<g clip-path="url(#clip0_3212_1392)">
<path d="M26.7427 22.9L26.876 23.0333C27.1787 23.3386 27.5537 23.5623 27.966 23.6838C28.3784 23.8052 28.8148 23.8204 29.2347 23.728C29.6477 23.6413 30.0323 23.4521 30.3532 23.1779C30.674 22.9036 30.9207 22.5532 31.0707 22.1586C31.8068 20.2257 32.1587 18.1677 32.1067 16.1C31.9566 12.0386 30.2861 8.18194 27.4264 5.29427C24.5666 2.40661 20.7263 0.698781 16.6667 0.509298C14.52 0.434655 12.3802 0.793018 10.375 1.56302C8.36979 2.33302 6.54014 3.4989 4.99514 4.99114C3.45014 6.48339 2.22143 8.27144 1.38225 10.2487C0.543071 12.226 0.110612 14.352 0.110657 16.5C0.115597 20.7419 1.80289 24.8087 4.8024 27.8082C7.80192 30.8077 11.8687 32.495 16.1107 32.5C16.5613 32.5 17.004 32.4706 17.444 32.4333C17.7779 32.4052 18.0889 32.2524 18.3152 32.0053C18.5415 31.7582 18.6665 31.435 18.6653 31.1L18.6227 26.316C18.6119 25.3706 18.8831 24.4435 19.4016 23.6529C19.9202 22.8624 20.6626 22.2444 21.5341 21.8778C22.4056 21.5112 23.3665 21.4126 24.2942 21.5947C25.222 21.7767 26.0744 22.2312 26.7427 22.9ZM22.82 11.2333C23.2023 11.1319 23.6061 11.146 23.9803 11.2741C24.3546 11.4021 24.6824 11.6382 24.9225 11.9526C25.1625 12.267 25.304 12.6455 25.3289 13.0402C25.3539 13.435 25.2613 13.8282 25.0627 14.1703C24.8642 14.5124 24.5686 14.788 24.2135 14.9621C23.8584 15.1363 23.4596 15.2012 23.0675 15.1487C22.6755 15.0962 22.3078 14.9287 22.011 14.6672C21.7142 14.4058 21.5016 14.0622 21.4 13.68C21.3325 13.4261 21.3158 13.1614 21.3506 12.901C21.3855 12.6406 21.4713 12.3897 21.6032 12.1625C21.735 11.9353 21.9104 11.7363 22.1191 11.5768C22.3279 11.4174 22.5661 11.3007 22.82 11.2333ZM10.5133 23.1C10.131 23.2014 9.72722 23.1872 9.35298 23.0592C8.97874 22.9311 8.65087 22.695 8.41082 22.3806C8.17077 22.0663 8.02933 21.6878 8.00437 21.2931C7.97941 20.8983 8.07206 20.505 8.27061 20.1629C8.46915 19.8208 8.76468 19.5453 9.11981 19.3711C9.47494 19.197 9.87374 19.1321 10.2658 19.1845C10.6578 19.237 11.0255 19.4046 11.3223 19.666C11.6191 19.9275 11.8318 20.271 11.9333 20.6533C12.0008 20.9072 12.0176 21.1719 11.9827 21.4323C11.9478 21.6926 11.862 21.9436 11.7302 22.1708C11.5983 22.398 11.423 22.597 11.2142 22.7564C11.0054 22.9159 10.7672 23.0326 10.5133 23.1ZM10.5133 15.1C10.131 15.2014 9.72722 15.1872 9.35298 15.0592C8.97874 14.9311 8.65087 14.695 8.41082 14.3806C8.17077 14.0663 8.02933 13.6878 8.00437 13.2931C7.97941 12.8983 8.07206 12.505 8.27061 12.1629C8.46915 11.8208 8.76468 11.5453 9.11981 11.3711C9.47494 11.197 9.87374 11.1321 10.2658 11.1845C10.6578 11.237 11.0255 11.4046 11.3223 11.666C11.6191 11.9275 11.8318 12.271 11.9333 12.6533C12.0008 12.9072 12.0176 13.1719 11.9827 13.4323C11.9478 13.6926 11.862 13.9436 11.7302 14.1708C11.5983 14.398 11.423 14.597 11.2142 14.7564C11.0054 14.9159 10.7672 15.0326 10.5133 15.1ZM17.18 11.1C16.7977 11.2014 16.3939 11.1872 16.0196 11.0592C15.6454 10.9311 15.3175 10.695 15.0775 10.3806C14.8374 10.0663 14.696 9.6878 14.671 9.29305C14.6461 8.89831 14.7387 8.50502 14.9373 8.16293C15.1358 7.82084 15.4313 7.5453 15.7865 7.37115C16.1416 7.197 16.5404 7.13206 16.9324 7.18455C17.3245 7.23703 17.6922 7.40459 17.989 7.66602C18.2858 7.92745 18.4984 8.27102 18.6 8.6533C18.6674 8.90719 18.6842 9.17188 18.6494 9.43225C18.6145 9.69263 18.5287 9.94359 18.3968 10.1708C18.265 10.398 18.0896 10.597 17.8808 10.7564C17.6721 10.9159 17.4339 11.0326 17.18 11.1Z" fill="#FF782D"/>
</g>
<defs>
<clipPath id="clip0_3212_1392">
<rect width="32" height="32" fill="white" transform="translate(0 0.5)"/>
</clipPath>
</defs>
</svg>
