<svg width="32" height="33" viewBox="0 0 32 33" fill="none" xmlns="http://www.w3.org/2000/svg">
<g clip-path="url(#clip0_3212_1188)">
<path d="M31.9275 9.98169H0V30.005C0.0466667 30.1734 0.0875 30.345 0.1425 30.5109C0.52 31.655 1.58417 32.4292 2.8175 32.435C4.62583 32.4434 6.435 32.4375 8.24333 32.4375C15.1567 32.4375 22.0692 32.4384 28.9817 32.4375C30.4 32.4367 31.4983 31.635 31.8367 30.3425C31.8992 30.1042 31.9333 29.8509 31.9333 29.605C31.9383 23.1392 31.9375 16.6734 31.9375 10.2075C31.9375 10.1467 31.9325 10.085 31.9275 9.98169ZM11.08 24.6042C10.7308 25.0384 10.1692 25.0659 9.67 24.6667C8.17667 23.4734 6.685 22.28 5.19417 21.0842C4.5825 20.5934 4.58083 19.9559 5.19167 19.4659C6.69 18.2634 8.19 17.0625 9.69083 15.8642C10.1717 15.4809 10.7325 15.515 11.0775 15.94C11.4308 16.3759 11.3433 16.9375 10.8517 17.3334C9.73417 18.2309 8.61333 19.1234 7.49417 20.0184C7.39917 20.095 7.30583 20.1725 7.18083 20.2759C7.6925 20.685 8.17583 21.0734 8.65917 21.46C9.38917 22.0442 10.12 22.6259 10.8483 23.2117C11.3417 23.6092 11.4317 24.1675 11.08 24.6042ZM19.5825 14.2117C17.7467 18.5042 15.9075 22.795 14.0675 27.085C13.8667 27.5534 13.5158 27.7875 13.0875 27.7542C12.6858 27.7234 12.3167 27.4375 12.265 27.0275C12.235 26.7859 12.2875 26.5075 12.3842 26.2809C13.915 22.6817 15.4592 19.0884 17 15.4934C17.3025 14.7875 17.5992 14.0792 17.9092 13.3767C18.1042 12.9359 18.5425 12.7125 18.9733 12.81C19.4033 12.9067 19.7133 13.2967 19.7083 13.8209C19.6833 13.8992 19.6475 14.0617 19.5825 14.2117ZM26.7867 21.0517C25.265 22.2759 23.74 23.495 22.2117 24.7092C21.7525 25.075 21.1833 25.0192 20.8517 24.5975C20.5175 24.1734 20.5942 23.615 21.0492 23.2484C22.1817 22.3367 23.3192 21.43 24.4542 20.5217C24.5425 20.45 24.6292 20.3767 24.7575 20.2709C24.0133 19.6742 23.3017 19.1042 22.59 18.5342C22.0792 18.125 21.5658 17.7192 21.0583 17.3075C20.5908 16.9275 20.5133 16.3609 20.8642 15.935C21.205 15.5209 21.7625 15.48 22.2267 15.8492C23.7467 17.0592 25.2633 18.2709 26.7775 19.4875C27.3417 19.9409 27.3467 20.6017 26.7867 21.0517Z" fill="#FF782D"/>
<path d="M31.9367 3.55006C31.9333 1.82923 30.7317 0.625892 29.0125 0.625892C20.3225 0.624226 11.6317 0.624226 2.94167 0.625059C1.45083 0.625892 0.3975 1.46339 0.0525 2.91339C0.0408333 2.96339 0.0175 3.01006 0 3.05756V8.11006H31.9225C31.9283 7.99089 31.9367 7.89089 31.9367 7.79089C31.9375 6.37756 31.94 4.96339 31.9367 3.55006ZM4.73667 6.23756C4.23167 6.23589 3.80833 5.81256 3.80583 5.30673C3.80333 4.79006 4.24333 4.35756 4.76 4.36839C5.26583 4.37923 5.68167 4.80923 5.675 5.31423C5.66833 5.82006 5.24167 6.24006 4.73667 6.23756ZM8.47167 6.23756C7.96667 6.23089 7.54667 5.80423 7.54917 5.29923C7.55083 4.79339 7.97417 4.37006 8.47917 4.36839C8.985 4.36673 9.41167 4.78589 9.4175 5.29173C9.42417 5.80923 8.98917 6.24423 8.47167 6.23756ZM12.2208 6.23756C11.7158 6.23506 11.2933 5.81173 11.2917 5.30589C11.29 4.78839 11.7292 4.35673 12.2467 4.36839C12.7517 4.38006 13.1675 4.81006 13.1608 5.31506C13.1533 5.82089 12.7258 6.24006 12.2208 6.23756ZM27.0683 6.23839C26.1758 6.24006 25.2833 6.23923 24.39 6.23923C23.4975 6.23923 22.605 6.24006 21.7125 6.23839C21.0792 6.23756 20.6533 5.86506 20.6483 5.31089C20.6433 4.75673 21.0708 4.36839 21.6958 4.36839C23.4917 4.36673 25.2867 4.36673 27.0825 4.36839C27.71 4.36839 28.1358 4.75423 28.1308 5.31006C28.1267 5.86589 27.7033 6.23756 27.0683 6.23839Z" fill="#FF782D"/>
</g>
<defs>
<clipPath id="clip0_3212_1188">
<rect width="32" height="32" fill="white" transform="translate(0 0.5)"/>
</clipPath>
</defs>
</svg>
