<svg width="32" height="33" viewBox="0 0 32 33" fill="none" xmlns="http://www.w3.org/2000/svg">
<g clip-path="url(#clip0_3212_723)">
<path d="M24.0966 23.585C23.7033 19.0375 19.5416 15.675 14.9925 16.2283C10.6133 16.7617 7.4083 20.6792 7.86247 25.0767C8.22164 28.5458 10.1433 30.8767 13.4141 32.0692C14.0108 32.2875 14.6608 32.36 15.2866 32.5H16.6591C16.8108 32.4742 16.9625 32.445 17.115 32.4225C21.4441 31.785 24.4741 27.9492 24.0966 23.585ZM17.1483 29.49C17.0725 29.5217 16.9966 29.5525 16.9075 29.5883V30.9817H15.045V29.6017C13.5291 28.8783 12.7658 27.8325 12.8416 26.5658H14.6475C14.6708 26.645 14.695 26.7108 14.7091 26.7792C14.8591 27.4858 15.4291 27.905 16.1391 27.8283C16.7708 27.7608 17.2741 27.1833 17.2616 26.5408C17.2475 25.8542 16.72 25.295 16.0108 25.275C15.0683 25.2483 14.2666 24.9242 13.6333 24.2233C12.1725 22.6075 12.7325 20.0758 14.7466 19.215C14.9766 19.1167 15.0583 19.0067 15.0425 18.7617C15.02 18.4117 15.0366 18.0583 15.0366 17.6817H16.9083C16.9083 18.07 16.9225 18.4417 16.9033 18.8117C16.8925 19.0225 16.965 19.1125 17.1591 19.1967C18.3391 19.7075 18.9916 20.6142 19.12 21.895C19.1258 21.955 19.12 22.0158 19.12 22.0967H17.29C17.27 22.0192 17.2466 21.9417 17.23 21.8625C17.0858 21.1883 16.4908 20.7592 15.8075 20.8375C15.165 20.9108 14.6533 21.5133 14.685 22.16C14.7191 22.8408 15.2425 23.36 15.9316 23.3958C17.5191 23.4775 18.6841 24.3817 19.035 25.8042C19.4116 27.3342 18.6208 28.8808 17.1483 29.49Z" fill="#FF782D"/>
<path d="M8.3725 17.4951C8.37083 17.6634 8.29833 17.8609 8.19417 17.9934C7.47917 18.8976 6.90833 19.8793 6.52333 20.9676C6.47333 21.1076 6.43833 21.2251 6.2375 21.2243C4.15833 21.2134 2.07917 21.2126 0 21.2084V19.3368H3.60833V12.9801H8.38083V13.3159C8.38083 14.7093 8.38667 16.1018 8.3725 17.4951Z" fill="#FF782D"/>
<path d="M31.9267 19.3475V21.2025C31.825 21.2084 31.725 21.2192 31.6258 21.2192C29.6925 21.22 27.7592 21.215 25.8267 21.2259C25.5908 21.2267 25.4817 21.16 25.4033 20.9342C25.0308 19.8534 24.4575 18.8842 23.7475 17.99C23.6483 17.8642 23.5725 17.6784 23.5725 17.5209C23.5633 11.9717 23.565 6.42255 23.565 0.873381V0.569214H28.3283V19.3475H31.9267Z" fill="#FF782D"/>
<path d="M21.6666 4.70422V15.9826C20.9158 15.6259 20.1766 15.2067 19.39 14.9201C18.6058 14.6342 17.7725 14.4817 16.9266 14.2626V4.70422H21.6666Z" fill="#FF782D"/>
<path d="M15.0125 8.84924V14.2634C14.1808 14.4801 13.3408 14.6359 12.5483 14.9234C11.7675 15.2076 11.0342 15.6251 10.2742 15.9867V8.84924H15.0125Z" fill="#FF782D"/>
</g>
<defs>
<clipPath id="clip0_3212_723">
<rect width="32" height="32" fill="white" transform="translate(0 0.5)"/>
</clipPath>
</defs>
</svg>
