<svg width="32" height="33" viewBox="0 0 32 33" fill="none" xmlns="http://www.w3.org/2000/svg">
<g clip-path="url(#clip0_3212_2213)">
<path d="M31.5533 7.34419C31.8892 7.66919 32.0608 8.03669 31.8675 8.49085C31.6808 8.92919 31.3133 9.06419 30.855 9.06252C29.035 9.05419 27.215 9.05919 25.3958 9.05919H24.9983V12.3917C25.0825 12.3984 25.1717 12.4109 25.2608 12.4109C25.885 12.4134 26.5092 12.4109 27.1325 12.4125C27.8358 12.4142 28.2008 12.7834 28.2017 13.495C28.2033 14.7742 28.2025 16.0525 28.2025 17.3317C28.2025 21.9684 28.1958 26.605 28.2108 31.2425C28.2125 31.8209 28.0558 32.25 27.5167 32.5H19.7167C19.7192 31.6475 19.7233 30.795 19.7233 29.9425V13.5992C19.7233 12.7425 20.0542 12.4125 20.91 12.4117C21.6067 12.4117 22.3033 12.41 23 12.4075C23.0192 12.4075 23.0383 12.3959 23.1 12.3759V12.0292C23.1 8.59752 23.0992 5.16669 23.1025 1.73585C23.1025 1.56085 23.1108 1.37919 23.1583 1.21252C23.2775 0.790021 23.7125 0.514188 24.1425 0.564188C24.5842 0.615021 24.93 0.965854 24.9642 1.40919C24.9775 1.59252 24.9658 1.77752 24.9658 1.99585H25.3383C27.1792 1.99585 29.02 2.00002 30.86 1.99335C31.3058 1.99169 31.6633 2.12669 31.8567 2.54502C32.0575 2.98002 31.91 3.34669 31.5992 3.67919C31.0092 4.30835 30.4275 4.94669 29.8225 5.60335C29.8925 5.68085 29.9567 5.75669 30.0267 5.82669C30.5342 6.33419 31.0383 6.84419 31.5533 7.34419Z" fill="#FF782D"/>
<path d="M17.8492 20.6851C17.8508 24.6234 17.8475 28.5617 17.845 32.5001H10.4825C10.4817 28.5717 10.4792 24.6442 10.4808 20.7159C10.4808 20.1284 10.8625 19.7301 11.4533 19.7267C13.2617 19.7176 15.0708 19.7176 16.8792 19.7267C17.4592 19.7301 17.8483 20.1201 17.8492 20.6851Z" fill="#FF782D"/>
<path d="M8.61085 32.5001H0.998348C0.459181 32.2734 0.278348 31.8667 0.286681 31.2892C0.310848 29.5542 0.294181 27.8192 0.295848 26.0834C0.295848 25.3126 0.646681 24.9634 1.42168 24.9634C3.43751 24.9626 5.45418 24.9626 7.47001 24.9634C8.25501 24.9634 8.60668 25.3192 8.60751 26.1092C8.60918 28.2392 8.61002 30.3701 8.61085 32.5001Z" fill="#FF782D"/>
<path d="M17.12 9.02256C16.6392 9.24923 16.115 9.04423 15.8483 8.5209C15.6417 8.11506 15.4417 7.70756 15.2175 7.2584C15.145 7.38256 15.0917 7.46423 15.0458 7.55006C11.9825 13.2392 7.51 17.4134 1.60667 20.0492C0.789167 20.4142 0.465 20.3176 0 19.5867V19.0876C0.161667 18.6967 0.476667 18.4984 0.8525 18.3317C6.325 15.8984 10.475 12.0317 13.3375 6.77756C13.395 6.67173 13.4433 6.56173 13.5267 6.39256C12.9742 6.50256 12.49 6.60673 12.0025 6.6934C11.5833 6.76756 11.1767 6.5434 11.0042 6.16507C10.7608 5.63007 11.0575 5.0009 11.6425 4.8709C12.7375 4.6284 13.835 4.39923 14.935 4.17923C15.4725 4.07173 15.8117 4.2484 16.0567 4.7384C16.5508 5.72173 17.0417 6.70673 17.5258 7.69506C17.7883 8.2309 17.6108 8.7909 17.12 9.02256Z" fill="#FF782D"/>
</g>
<defs>
<clipPath id="clip0_3212_2213">
<rect width="32" height="32" fill="white" transform="translate(0 0.5)"/>
</clipPath>
</defs>
</svg>
