<svg width="32" height="33" viewBox="0 0 32 33" fill="none" xmlns="http://www.w3.org/2000/svg">
<g clip-path="url(#clip0_3212_1418)">
<path d="M3.42387 15.7755C1.01971 13.7854 0.942364 10.8634 1.91604 8.97615C2.98253 6.90596 5.19559 5.73573 7.54969 6.05422C9.54618 6.32449 11.6346 7.8032 12.1678 10.5632C12.6556 6.9915 14.5674 4.79482 18.2728 4.57006C20.8726 4.41263 23.1831 6.0433 24.1385 8.42835C25.0622 10.7342 24.5853 13.6807 22.1575 15.6399C22.2303 15.6808 22.2931 15.72 22.3586 15.7509C23.78 16.4134 24.5571 17.5299 24.5762 19.0951C24.6081 21.7404 24.6054 24.3857 24.579 27.031C24.5571 29.1685 22.9747 30.7073 20.8435 30.7091C15.5875 30.7136 10.3324 30.7136 5.07638 30.7091C2.92702 30.7073 1.34184 29.1576 1.32546 27.01C1.30544 24.3757 1.30544 21.7422 1.32728 19.1078C1.33911 17.6892 1.99247 16.6154 3.22458 15.9002C3.2901 15.8619 3.3538 15.8192 3.42387 15.7755ZM18.4157 13.6216C20.0164 13.6152 21.3176 12.3112 21.3131 10.7178C21.3085 9.10992 19.9863 7.80411 18.3738 7.81685C16.7841 7.82959 15.4756 9.15906 15.4938 10.7433C15.5129 12.3485 16.8114 13.6279 18.4157 13.6216ZM8.94832 11.4631C8.95469 10.2519 7.98739 9.27099 6.78167 9.26553C5.58961 9.26007 4.59136 10.2574 4.59318 11.4513C4.595 12.6424 5.55867 13.6116 6.75255 13.6216C7.9701 13.6325 8.94104 12.677 8.94832 11.4631ZM7.15294 25.6178C6.69887 25.6178 6.24479 25.6114 5.79071 25.6196C5.28658 25.6287 4.97628 25.9053 4.96991 26.3367C4.96354 26.7844 5.27749 27.0765 5.79799 27.0801C6.69523 27.0874 7.59155 27.0874 8.48879 27.0801C8.98563 27.0756 9.30867 26.7853 9.31777 26.363C9.32687 25.9308 8.992 25.6278 8.4806 25.6196C8.03835 25.6123 7.59519 25.6178 7.15294 25.6178ZM10.5035 15.4297C11.8248 15.4297 13.0769 15.4297 14.4064 15.4297C13.1752 14.3541 12.5009 13.0392 12.2406 11.4995C12.1978 13.0319 11.6127 14.3168 10.5035 15.4297Z" fill="#FF782D"/>
<path d="M33.3065 23.079C33.3065 24.4986 33.3147 25.9173 33.3038 27.3368C33.2929 28.75 32.27 29.7364 30.9178 29.6108C30.5811 29.5799 30.2326 29.4425 29.9341 29.2751C28.6993 28.5798 27.4827 27.8509 26.2551 27.1439C26.0858 27.0465 26.0294 26.9355 26.0294 26.7426C26.0358 24.302 26.0358 21.8606 26.0294 19.42C26.0285 19.228 26.0831 19.1152 26.2533 19.0178C27.4817 18.3108 28.7002 17.5873 29.9296 16.8812C31.5339 15.9594 33.2865 16.9667 33.3038 18.824C33.3174 20.2408 33.3065 21.6604 33.3065 23.079Z" fill="#FF782D"/>
</g>
<defs>
<clipPath id="clip0_3212_1418">
<rect width="32" height="32" fill="white" transform="translate(0 0.5)"/>
</clipPath>
</defs>
</svg>
