<svg width="30" height="29" viewBox="0 0 30 29" fill="none" xmlns="http://www.w3.org/2000/svg">
<path d="M0.664196 8.88586V9.2142C0.664196 14.2775 0.663363 19.3409 0.665863 24.4042C0.665863 24.6534 0.667529 24.9059 0.709196 25.15C1.0792 27.3525 2.81753 28.8259 5.06503 28.83C9.0667 28.8367 13.0692 28.8317 17.0717 28.8317H17.4084C17.35 28.5975 17.2925 28.4192 17.2642 28.2367C17.0342 26.7692 16.8267 25.2984 16.5784 23.8342C16.4567 23.1209 16.5334 22.4684 16.845 21.8084C18.2909 18.7492 19.7125 15.6775 21.1442 12.6117C22.0984 10.5684 24.18 9.8067 26.2242 10.7575C27.2367 11.2275 28.2425 11.7117 29.2409 12.185V8.88586H0.664196ZM12.2367 24.8367C11.1459 24.8425 10.0559 24.8384 8.96503 24.8384C7.8642 24.8375 6.76336 24.8384 5.66253 24.8375C5.2617 24.8375 4.9592 24.6567 4.77253 24.31C4.5917 23.9742 4.61003 23.6267 4.81503 23.3034C5.01503 22.9884 5.32003 22.8442 5.68586 22.8442C7.8767 22.8409 10.0684 22.8375 12.26 22.845C12.8734 22.8475 13.3 23.2834 13.295 23.8559C13.29 24.43 12.8625 24.8334 12.2367 24.8367ZM15.1759 19.4934C15.0559 19.52 14.9284 19.5184 14.805 19.5184C13.2984 19.52 11.7925 19.5192 10.2867 19.5192C8.76003 19.5192 7.23336 19.5225 5.7067 19.5175C4.9892 19.515 4.50503 18.9 4.69003 18.2434C4.81253 17.8084 5.20253 17.525 5.70253 17.5234C6.93836 17.52 8.17503 17.5225 9.41086 17.5225C11.2492 17.5225 13.0875 17.52 14.9259 17.5242C15.4759 17.525 15.9017 17.8992 15.9592 18.41C16.015 18.9109 15.6784 19.3834 15.1759 19.4934ZM15.9384 13.4067C15.8417 13.8142 15.5825 14.0809 15.1634 14.1659C15.0325 14.1925 14.8959 14.1984 14.7617 14.1984C13.2759 14.2009 11.7909 14.2 10.3059 14.2C8.79003 14.2 7.27336 14.2025 5.75753 14.1984C5.08253 14.1959 4.64086 13.7684 4.66003 13.155C4.67586 12.6509 5.05586 12.2509 5.5592 12.21C5.6417 12.2034 5.72503 12.2034 5.80836 12.2034C8.8092 12.2034 11.8109 12.1975 14.8125 12.2134C15.0742 12.2142 15.3717 12.3009 15.59 12.4434C15.9167 12.6567 16.03 13.0184 15.9384 13.4067Z" fill="#FF782D"/>
<path d="M29.2609 4.56587C29.2425 4.14337 29.1992 3.71087 29.0817 3.30754C28.5325 1.41421 26.8725 0.224208 24.8142 0.223374C18.2542 0.221708 11.6942 0.222541 5.13338 0.223374C5.00921 0.223374 4.88421 0.224208 4.75921 0.229208C2.79421 0.305041 1.03338 1.79754 0.755878 3.74671C0.620044 4.69587 0.687544 5.67504 0.665878 6.64004C0.664211 6.70837 0.682544 6.77754 0.692544 6.85587H29.2542C29.2592 6.75837 29.2675 6.66004 29.2684 6.56171C29.2692 5.89587 29.2892 5.23004 29.2609 4.56587ZM6.30838 4.86921C5.76421 4.86671 5.31588 4.42004 5.31421 3.87921C5.31338 3.32921 5.79004 2.86171 6.33588 2.87754C6.88088 2.89254 7.31171 3.34171 7.30588 3.89087C7.30004 4.44254 6.86338 4.87171 6.30838 4.86921ZM9.65254 4.86921C9.09838 4.87337 8.65921 4.44504 8.65254 3.89421C8.64504 3.33171 9.09421 2.87254 9.64838 2.87671C10.1825 2.88087 10.6417 3.34171 10.6434 3.87587C10.645 4.41671 10.1984 4.86504 9.65254 4.86921ZM12.98 4.86837C12.4317 4.87254 11.9809 4.43754 11.9725 3.89504C11.9642 3.33921 12.4217 2.87421 12.9742 2.87754C13.5125 2.88087 13.9659 3.33587 13.9675 3.87421C13.9692 4.41837 13.5259 4.86421 12.98 4.86837Z" fill="#FF782D"/>
<path d="M27.5075 19.4308C27.3209 19.8308 27.1434 20.2142 26.965 20.5967C26.1892 22.2617 25.41 23.9258 24.64 25.5933C24.5 25.8983 24.3 26.1258 24.0117 26.2992C22.7392 27.0642 21.4734 27.8408 20.2034 28.61C19.4075 29.0925 18.6784 28.7517 18.5359 27.8308C18.3042 26.3325 18.0709 24.8342 17.8567 23.3333C17.8259 23.1183 17.8459 22.8625 17.935 22.6675C18.8909 20.5825 19.8659 18.5067 20.8359 16.4283C20.8442 16.4108 20.8617 16.3967 20.9017 16.3508C23.1017 17.3767 25.2909 18.3975 27.5075 19.4308Z" fill="#FF782D"/>
<path d="M29.1609 15.8092C28.9492 16.4225 28.64 17.0025 28.3625 17.6259C26.1367 16.5884 23.9434 15.565 21.715 14.5259C21.9892 13.9484 22.2217 13.4042 22.5 12.8834C23.05 11.8559 24.2792 11.3934 25.3559 11.8409C26.2842 12.2267 27.1975 12.6525 28.09 13.1134C29.0475 13.6084 29.5142 14.785 29.1609 15.8092Z" fill="#FF782D"/>
<path d="M29.2667 24.4633C29.2542 26.6867 27.7817 28.4433 25.5842 28.7742C24.8309 28.8875 24.0501 28.8192 23.2809 28.8308C23.0326 28.835 22.7842 28.8317 22.5351 28.8317C22.5284 28.8092 22.5209 28.7867 22.5142 28.7642C23.2209 28.3342 23.9192 27.89 24.6359 27.4775C25.2092 27.1483 25.6042 26.69 25.8801 26.0908C26.9334 23.7992 28.0059 21.5158 29.0717 19.23C29.1134 19.1392 29.1617 19.0508 29.2434 18.8892C29.2559 19.0408 29.2676 19.1167 29.2676 19.1917C29.2692 20.9492 29.2767 22.7058 29.2667 24.4633Z" fill="#FF782D"/>
</svg>
