<svg width="32" height="33" viewBox="0 0 32 33" fill="none" xmlns="http://www.w3.org/2000/svg">
<path d="M27.9383 6.46589C27.9366 6.22922 27.8991 5.98839 27.8416 5.75839C27.4591 4.21172 26.1816 3.22922 24.5291 3.22172C22.5433 3.21339 20.5583 3.22005 18.5724 3.22005C14.1958 3.22005 9.81994 3.21589 5.44327 3.22172C3.43661 3.22422 1.99327 4.64339 1.99161 6.61505C1.98661 12.5626 1.98827 18.5101 1.99411 24.4576C1.99411 24.7351 2.02411 25.0201 2.08994 25.2892C2.45911 26.8109 3.73161 27.8267 5.33327 27.8326C9.14827 27.8476 12.9633 27.8376 16.7791 27.8376C16.8399 27.8376 16.9016 27.8284 17.0116 27.8201C17.0116 27.7151 17.0174 27.6334 17.0108 27.5534C16.9274 26.5192 17.2283 25.5992 17.7541 24.7117C19.0024 22.6026 20.2058 20.4667 21.4433 18.3509C21.7608 17.8067 22.0749 17.2784 21.9608 16.6126C21.9583 16.5959 21.9749 16.5759 21.9966 16.5234C22.4941 16.6851 22.6299 16.2892 22.8149 15.9617C22.8608 15.8809 22.9074 15.8001 22.9541 15.7184C23.1741 15.3351 23.3941 14.9526 23.6433 14.5201H21.9791V10.5517H25.9366C25.9449 10.7134 25.9516 10.8609 25.9583 10.9901C26.2891 10.8684 26.5899 10.7184 26.9083 10.6517C27.2366 10.5834 27.5808 10.5976 27.9349 10.5742C27.9383 10.5276 27.9441 10.4776 27.9441 10.4276C27.9441 9.10672 27.9474 7.78589 27.9383 6.46589ZM7.95494 25.8209C6.98494 25.8209 6.02077 25.8534 5.06077 25.8084C4.51911 25.7826 4.03744 25.2542 4.00577 24.6934C3.96577 23.9817 3.99577 23.2651 3.99577 22.5234H7.95494V25.8209ZM7.95661 20.5009H4.00411V16.5426H7.95661V20.5009ZM7.96327 14.5059H4.00827V10.5509H7.96327V14.5059ZM7.96327 8.52255H3.98661V7.86089C3.98661 7.41422 3.97911 6.96755 3.98911 6.52089C4.00244 5.88755 4.45827 5.28339 5.05827 5.25089C6.01911 5.19922 6.98411 5.23672 7.96327 5.23672V8.52255ZM18.5166 17.0851C17.1841 17.8492 15.8558 18.6192 14.5249 19.3876C14.1658 19.5951 13.8066 19.8042 13.4466 20.0101C12.3541 20.6342 11.3024 20.0317 11.2983 18.7784C11.2949 17.8017 11.2974 16.8251 11.2974 15.8476C11.2974 14.8817 11.2958 13.9151 11.2983 12.9484C11.3016 11.6892 12.3533 11.0851 13.4433 11.7134C15.1424 12.6934 16.8408 13.6759 18.5408 14.6542C18.9966 14.9167 19.2766 15.2884 19.2874 15.8292C19.2983 16.4101 19.0058 16.8042 18.5166 17.0851ZM25.9483 8.51422H21.9666V5.23922C22.0566 5.23172 22.1449 5.21755 22.2333 5.21755C22.9916 5.21589 23.7499 5.21339 24.5083 5.21755C25.4091 5.22255 25.9441 5.75672 25.9474 6.65089C25.9499 7.26422 25.9483 7.87672 25.9483 8.51422Z" fill="#FF782D"/>
<path d="M25.0832 14.6951C23.0474 18.2226 21.0224 21.7309 18.9857 25.2592C20.1557 25.9342 21.2916 26.5901 22.4457 27.2559C24.4866 23.7209 26.5116 20.2126 28.5432 16.6917C27.3699 16.0142 26.2399 15.3626 25.0832 14.6951ZM25.2349 19.7301C25.0432 20.0409 24.6607 20.1001 24.3557 19.9159C24.0674 19.7409 23.9374 19.3826 24.1032 19.0759C24.4382 18.4551 24.7891 17.8417 25.1666 17.2459C25.2641 17.0926 25.4841 17.0159 25.6482 16.9042C26.1757 16.9542 26.5216 17.4551 26.2924 17.8976C25.9674 18.5234 25.6057 19.1309 25.2349 19.7301Z" fill="#FF782D"/>
<path d="M27.9441 24.4117C27.9374 26.385 26.5299 27.8084 24.5599 27.8375C24.2807 27.8409 24.0016 27.8375 23.6449 27.8375C24.0391 27.155 24.3982 26.5267 24.7674 25.905C24.8024 25.8467 24.8999 25.8167 24.9741 25.79C25.6182 25.5634 25.9624 25.1134 25.9399 24.4309C25.9266 24.0184 26.0332 23.6717 26.2441 23.3217C26.8041 22.3909 27.3366 21.4425 27.9216 20.4292C27.9324 20.595 27.9441 20.6809 27.9441 20.7667C27.9449 21.9817 27.9474 23.1967 27.9441 24.4117Z" fill="#FF782D"/>
<path d="M29.7957 14.51C29.6232 14.8508 29.4182 15.175 29.2099 15.5383C28.0407 14.8642 26.9041 14.2083 25.7466 13.5408C25.9707 13.1608 26.1599 12.7908 26.3941 12.4533C26.7641 11.9208 27.4741 11.7567 28.0583 12.0617C28.4899 12.2867 28.9124 12.5308 29.3233 12.7917C29.9158 13.1667 30.1124 13.8858 29.7957 14.51Z" fill="#FF782D"/>
<path d="M21.6966 28.3634C21.5008 28.5067 21.3533 28.6376 21.1858 28.7334C20.5916 29.0734 19.9949 29.4092 19.3916 29.7326C18.9391 29.9759 18.4208 29.7634 18.3924 29.2834C18.3433 28.4351 18.3633 27.5826 18.3583 26.7309C18.3583 26.6617 18.3924 26.5909 18.4233 26.4734C19.5233 27.1084 20.5874 27.7234 21.6966 28.3634Z" fill="#FF782D"/>
</svg>
